<?xml version="1.0" encoding="UTF-8" standalone="no"?>
<!DOCTYPE svg PUBLIC "-//W3C//DTD SVG 1.1//EN"
 "http://www.w3.org/Graphics/SVG/1.1/DTD/svg11.dtd">
<!-- Generated by graphviz version 2.43.0 (0)
 -->
<!-- Title: G Pages: 1 -->
<svg width="661pt" height="98pt"
 viewBox="0.00 0.00 661.00 98.00" xmlns="http://www.w3.org/2000/svg" xmlns:xlink="http://www.w3.org/1999/xlink">
<g id="graph0" class="graph" transform="scale(1 1) rotate(0) translate(4 94)">
<title>G</title>
<polygon fill="white" stroke="transparent" points="-4,4 -4,-94 657,-94 657,4 -4,4"/>
<!-- data.aws_key_pair.key -->
<g id="node1" class="node">
<title>data.aws_key_pair.key</title>
<polygon fill="none" stroke="black" points="381,-90 211,-90 211,-54 381,-54 381,-90"/>
<text text-anchor="middle" x="296" y="-68.3" font-family="sans-serif" font-size="14.00">data.aws_key_pair.key</text>
</g>
<!-- aws_instance.public_instance -->
<g id="node2" class="node">
<title>aws_instance.public_instance</title>
<polygon fill="none" stroke="black" points="653,-90 432,-90 432,-54 653,-54 653,-90"/>
<text text-anchor="middle" x="542.5" y="-68.3" font-family="sans-serif" font-size="14.00">aws_instance.public_instance</text>
</g>
<!-- aws_instance.public_instance&#45;&gt;data.aws_key_pair.key -->
<g id="edge1" class="edge">
<title>aws_instance.public_instance&#45;&gt;data.aws_key_pair.key</title>
<path fill="none" stroke="black" d="M431.77,-72C418.21,-72 404.45,-72 391.15,-72"/>
<polygon fill="black" stroke="black" points="391.09,-68.5 381.09,-72 391.09,-75.5 391.09,-68.5"/>
</g>
<!-- aws_subnet.public_subnet -->
<g id="node4" class="node">
<title>aws_subnet.public_subnet</title>
<polygon fill="none" stroke="black" points="396,-36 196,-36 196,0 396,0 396,-36"/>
<text text-anchor="middle" x="296" y="-14.3" font-family="sans-serif" font-size="14.00">aws_subnet.public_subnet</text>
</g>
<!-- aws_instance.public_instance&#45;&gt;aws_subnet.public_subnet -->
<g id="edge2" class="edge">
<title>aws_instance.public_instance&#45;&gt;aws_subnet.public_subnet</title>
<path fill="none" stroke="black" d="M459.75,-53.94C436.91,-48.9 411.95,-43.39 388.58,-38.23"/>
<polygon fill="black" stroke="black" points="389.2,-34.78 378.68,-36.04 387.69,-41.61 389.2,-34.78"/>
</g>
<!-- aws_subnet.private_subnet -->
<g id="node3" class="node">
<title>aws_subnet.private_subnet</title>
<polygon fill="none" stroke="black" points="645.5,-36 439.5,-36 439.5,0 645.5,0 645.5,-36"/>
<text text-anchor="middle" x="542.5" y="-14.3" font-family="sans-serif" font-size="14.00">aws_subnet.private_subnet</text>
</g>
<!-- aws_subnet.private_subnet&#45;&gt;aws_subnet.public_subnet -->
<g id="edge3" class="edge">
<title>aws_subnet.private_subnet&#45;&gt;aws_subnet.public_subnet</title>
<path fill="none" stroke="black" d="M439.23,-18C428.31,-18 417.17,-18 406.17,-18"/>
<polygon fill="black" stroke="black" points="406.12,-14.5 396.12,-18 406.12,-21.5 406.12,-14.5"/>
</g>
<!-- aws_vpc.vpc&#45;virginia -->
<g id="node5" class="node">
<title>aws_vpc.vpc&#45;virginia</title>
<polygon fill="none" stroke="black" points="160,-36 0,-36 0,0 160,0 160,-36"/>
<text text-anchor="middle" x="80" y="-14.3" font-family="sans-serif" font-size="14.00">aws_vpc.vpc&#45;virginia</text>
</g>
<!-- aws_subnet.public_subnet&#45;&gt;aws_vpc.vpc&#45;virginia -->
<g id="edge4" class="edge">
<title>aws_subnet.public_subnet&#45;&gt;aws_vpc.vpc&#45;virginia</title>
<path fill="none" stroke="black" d="M195.83,-18C187.36,-18 178.82,-18 170.43,-18"/>
<polygon fill="black" stroke="black" points="170.28,-14.5 160.28,-18 170.28,-21.5 170.28,-14.5"/>
</g>
</g>
</svg>
